<?xml version="1.0" encoding="UTF-8" standalone="no"?>
<!DOCTYPE svg PUBLIC "-//W3C//DTD SVG 1.1//EN" "http://www.w3.org/Graphics/SVG/1.1/DTD/svg11.dtd">
<svg xmlns:dc="http://purl.org/dc/elements/1.1/" version="1.1" xmlns="http://www.w3.org/2000/svg" xmlns:xl="http://www.w3.org/1999/xlink" viewBox="39.590657 348 105.70934 113" width="105.70934" height="113">
  <defs/>
  <g id="Canvas_1" fill="none" fill-opacity="1" stroke-opacity="1" stroke-dasharray="none" stroke="none">
    <title>Canvas 1</title>
    <g id="Canvas_1_Layer_1">
      <title>Layer 1</title>
      <g id="Graphic_7">
        <title>Tracé_3467</title>
        <path d="M 39.590657 433.0018 L 39.590657 383.3657 C 39.590657 367.85443 52.15479 355.2903 67.58851 355.2903 L 133.43387 355.2903 L 141.49974 359.013 L 145.3 367.15643 L 145.3 433.0018 C 145.3 448.4355 132.73587 460.99964 117.30215 460.99964 L 67.58851 460.99964 C 52.15479 461.0772 39.590657 448.51307 39.590657 433.0018 Z" fill="#f70"/>
      </g>
      <g id="Graphic_8">
        <title>Tracé_3469</title>
        <path d="M 125.98846 348 C 136.45857 348 145.3 356.45365 145.3 366.92376 C 145.3 377.39387 136.45857 386.00263 125.98846 386.00263 C 115.51835 386.00263 78.67907 355.36786 79.454635 355.36786 C 80.2302 355.36786 58.20419 355.2903 86.58982 355.36786 C 114.97546 355.4454 113.73455 348.31023 125.98846 348 Z" fill="#f70"/>
      </g>
      <g id="Graphic_9">
        <title>Ellipse_69</title>
        <circle cx="126.37624" cy="366.61353" r="6.66985917279867" fill="white"/>
      </g>
      <g id="Graphic_10">
        <title>Ellipse_67</title>
        <circle cx="92.48411" cy="408.18375" r="31.3328268117519" fill="white"/>
      </g>
      <g id="Graphic_11">
        <title>Ellipse_68</title>
        <circle cx="92.48411" cy="408.18375" r="22.181159574656" fill="#3c3c3c"/>
      </g>
    </g>
  </g>
</svg>
